<svg preserveAspectRatio="none" overflow="visible" style="display: block;" width="30" height="30" viewBox="0 0 30 30" fill="none" xmlns="http://www.w3.org/2000/svg">
<g id="Actions / Arrows">
<path id="Back" fill-rule="evenodd" clip-rule="evenodd" d="M14.609 26.9228C14.482 26.8728 14.367 26.7998 14.268 26.7048L7.304 19.7298C7.108 19.5338 7 19.2728 7 18.9948C7 18.7178 7.108 18.4568 7.304 18.2598C7.709 17.8548 8.368 17.8548 8.772 18.2598L13.968 23.4727L13.968 4.03575C13.968 3.46475 14.432 2.99975 15.002 2.99975C15.572 2.99975 16.036 3.46475 16.036 4.03575V23.4727L21.231 18.2598C21.632 17.8548 22.288 17.8518 22.7 18.2598C22.891 18.4528 22.999 18.7187 22.999 18.9897C23 18.9947 23 18.9978 22.999 19.0008C22.999 19.2718 22.89 19.5378 22.699 19.7298L15.735 26.7057C15.636 26.7997 15.522 26.8728 15.395 26.9228C15.143 27.0258 14.864 27.0258 14.609 26.9228" fill="black"/>
</g>
</svg>
